Coordinates
version=1
nRows=16
nColumns=38
inDegrees=no

Units are S.I. units (second, meters, Newtons, ...)
If the header above contains a line with 'inDegrees', this indicates whether rotational values are in degrees (yes) or radians (no).

endheader
time	pelvis_tilt	pelvis_list	pelvis_rotation	pelvis_tx	pelvis_ty	pelvis_tz	hip_flexion_r	hip_adduction_r	hip_rotation_r	knee_angle_r	ankle_angle_r	subtalar_angle_r	mtp_angle_r	hip_flexion_l	hip_adduction_l	hip_rotation_l	knee_angle_l	ankle_angle_l	subtalar_angle_l	mtp_angle_l	lumbar_extension	lumbar_bending	lumbar_rotation	arm_flex_r	arm_add_r	arm_rot_r	elbow_flex_r	pro_sup_r	wrist_flex_r	wrist_dev_r	arm_flex_l	arm_add_l	arm_rot_l	elbow_flex_l	pro_sup_l	wrist_flex_l	wrist_dev_l
0	-0.142608	1.48462	-1.40742	0.712607	1.91914	0.928669	0.0745426	0.080132	-0.0785961	0.211594	0.0836225	0	0	0.218551	-0.201078	-0.207246	1.31381	-0.0914857	0	0	-0.225059	-0.010478	-0.132763	-0.0752558	-0.268204	0.375703	0.517896	0.977178	0	0	-0.0878023	-0.372114	0.384793	0.669682	1.08832	0	0
0.01	-0.0760426	1.48573	-1.48234	0.711526	1.91078	0.929961	0.058948	0.0757216	-0.0709587	0.199479	0.0835904	0	0	0.242319	-0.195652	-0.207804	1.31465	-0.0718748	0	0	-0.223972	-0.0183749	-0.12551	-0.07654	-0.269652	0.374585	0.520959	0.972934	0	0	-0.084323	-0.372609	0.390125	0.669361	1.0759	0	0
0.02	-0.0109703	1.48462	-1.55519	0.710425	1.90204	0.931418	0.0408799	0.0714751	-0.0638412	0.187414	0.0847942	0	0	0.261655	-0.190822	-0.20934	1.30988	-0.0507967	0	0	-0.224652	-0.0260896	-0.1188	-0.0789193	-0.26992	0.366854	0.524526	0.969682	0	0	-0.0820692	-0.373393	0.394243	0.670427	1.06493	0	0
0.03	0.0519895	1.48246	-1.6258	0.709353	1.89332	0.932881	0.0223242	0.0669332	-0.0561397	0.175922	0.0864743	0	0	0.278899	-0.185651	-0.211508	1.30043	-0.0281537	0	0	-0.226055	-0.0339354	-0.112278	-0.0814735	-0.270022	0.361201	0.528237	0.974864	0	0	-0.0797389	-0.374999	0.400859	0.672685	1.0471	0	0
0.04	0.114053	1.48057	-1.69494	0.70835	1.88466	0.934166	0.00583908	0.0617096	-0.0506868	0.166826	0.0894084	0	0	0.296108	-0.179482	-0.213326	1.28672	-0.0073844	0	0	-0.226905	-0.0419974	-0.105891	-0.0857757	-0.268253	0.347825	0.5341	0.985959	0	0	-0.0772643	-0.377685	0.410824	0.678611	1.0038	0	0
0.05	0.169343	1.47729	-1.75729	0.707357	1.87604	0.935487	-0.0129937	0.0566793	-0.042147	0.154978	0.0891588	0	0	0.310387	-0.173031	-0.215922	1.26748	0.0101172	0	0	-0.228779	-0.0498947	-0.101405	-0.085951	-0.269981	0.357567	0.536763	0.985472	0	0	-0.0755001	-0.376842	0.406677	0.677492	1.02906	0	0
0.06	0.223201	1.47499	-1.81689	0.705967	1.86777	0.936646	-0.0305789	0.0524656	-0.0328964	0.142219	0.0882225	0	0	0.323865	-0.165793	-0.218171	1.24108	0.024796	0	0	-0.230245	-0.0587516	-0.098357	-0.0858141	-0.267664	0.357422	0.538567	0.982065	0	0	-0.0736737	-0.377853	0.402185	0.6768	1.04647	0	0
0.07	0.272622	1.4714	-1.87288	0.70498	1.85919	0.937619	-0.0506373	0.047086	-0.0237336	0.127798	0.0881491	0	0	0.335007	-0.159442	-0.223268	1.21242	0.037012	0	0	-0.232021	-0.0670462	-0.0946167	-0.0866696	-0.266454	0.357099	0.541884	0.979687	0	0	-0.0722654	-0.377255	0.398067	0.674331	1.0619	0	0
0.08	0.310602	1.46628	-1.91831	0.704456	1.85026	0.938467	-0.071877	0.0406879	-0.0163498	0.114591	0.0896651	0	0	0.343761	-0.15414	-0.230448	1.18262	0.048763	0	0	-0.234731	-0.0740234	-0.0902514	-0.088288	-0.267319	0.356657	0.547603	0.976768	0	0	-0.0712723	-0.374896	0.394798	0.670902	1.07541	0	0
0.09	0.411189	1.46435	-2.02415	0.703616	1.84153	0.93824	-0.08555	0.0324731	-0.0268931	0.0990601	0.0899616	0	0	0.356522	-0.141791	-0.238696	1.14635	0.059878	0	0	-0.231075	-0.0877725	-0.0887611	-0.0901725	-0.26549	0.359204	0.552895	0.974819	0	0	-0.0718555	-0.376037	0.390434	0.671467	1.08987	0	0
0.1	0.366775	1.46304	-2.00898	0.701179	1.83577	0.939	-0.0919475	0.034515	0.00787668	0.102916	0.0898411	0	0	0.358765	-0.151866	-0.255479	1.10577	0.0737352	0	0	-0.239277	-0.0885913	-0.0621774	-0.0825148	-0.269884	0.366137	0.55972	0.974843	0	0	-0.0613701	-0.370727	0.388854	0.665953	1.0994	0	0
0.11	0.457689	1.45972	-2.08098	0.702098	1.825	0.938837	-0.118262	0.024915	-0.016333	0.0763671	0.0921373	0	0	0.37028	-0.130026	-0.242614	1.06196	0.0863101	0	0	-0.233572	-0.0990016	-0.0839334	-0.0873367	-0.263559	0.367518	0.558445	0.973983	0	0	-0.0672321	-0.374345	0.385041	0.665429	1.10808	0	0
0.12	0.477474	1.45826	-2.10382	0.701506	1.81668	0.938773	-0.134898	0.0220007	-0.014501	0.0638212	0.0932905	0	0	0.376674	-0.124118	-0.248862	1.01555	0.0961948	0	0	-0.234279	-0.103691	-0.0841099	-0.0848063	-0.261683	0.370389	0.558865	0.972302	0	0	-0.0663673	-0.374307	0.382297	0.66387	1.11432	0	0
0.13	0.487768	1.4557	-2.11835	0.70087	1.80844	0.938726	-0.151092	0.0190072	-0.0124515	0.0548228	0.095964	0	0	0.378612	-0.118624	-0.258606	0.963409	0.101816	0	0	-0.236627	-0.108233	-0.0821611	-0.082809	-0.259775	0.371479	0.560267	0.966867	0	0	-0.0635623	-0.379542	0.404019	0.669783	1.03953	0	0
0.14	0.327336	1.44398	-1.95964	0.700695	1.80017	0.941536	-0.176936	0.0300057	-0.0200459	0.0649941	0.098875	0	0	0.357921	-0.126509	-0.264922	0.902906	0.104009	0	0	-0.25996	-0.0952347	-0.0824208	-0.0743912	-0.26231	0.386357	0.559159	0.953291	0	0	-0.0571604	-0.366897	0.374214	0.650459	1.12888	0	0
0.15	0.478856	1.45075	-2.11832	0.699518	1.79178	0.938397	-0.184816	0.0154912	-0.00654608	0.0377389	0.101273	0	0	0.377472	-0.112462	-0.306021	0.849479	0.0998304	0	0	-0.24328	-0.11378	-0.0793028	-0.0755917	-0.257577	0.385489	0.560056	0.959877	0	0	-0.0598807	-0.373453	0.383404	0.655831	1.10627	0	0
